<svg width="82" height="82" xmlns="http://www.w3.org/2000/svg" xmlns:xlink="http://www.w3.org/1999/xlink" xml:space="preserve" overflow="hidden"><g transform="translate(-1581 -1781)"><path d="M1606.64 1825.42C1605.69 1825.42 1604.93 1826.19 1604.93 1827.13L1604.93 1837.38C1604.93 1838.33 1605.69 1839.09 1606.64 1839.09 1607.58 1839.09 1608.34 1838.33 1608.34 1837.38L1608.34 1835.67 1610.04 1835.67C1612.87 1835.67 1615.17 1833.38 1615.17 1830.55 1615.17 1827.72 1612.87 1825.42 1610.04 1825.42L1606.64 1825.42ZM1610.04 1832.26 1608.34 1832.26 1608.34 1828.84 1610.04 1828.84C1610.99 1828.84 1611.75 1829.61 1611.75 1830.55 1611.75 1831.49 1610.99 1832.26 1610.04 1832.26ZM1632.24 1827.13C1632.24 1826.19 1633.01 1825.42 1633.95 1825.42L1639.09 1825.42C1640.04 1825.42 1640.8 1826.19 1640.8 1827.13 1640.8 1828.08 1640.04 1828.84 1639.09 1828.84L1635.66 1828.84 1635.65 1832.26 1639.09 1832.26C1640.04 1832.26 1640.8 1833.03 1640.8 1833.97 1640.8 1834.92 1640.04 1835.68 1639.09 1835.68L1635.65 1835.68 1635.66 1837.38C1635.66 1838.32 1634.9 1839.09 1633.95 1839.09 1633.01 1839.09 1632.24 1838.33 1632.24 1837.39L1632.23 1833.98 1632.23 1833.97 1632.24 1827.13ZM1620.29 1825.42C1619.35 1825.42 1618.58 1826.19 1618.58 1827.13L1618.58 1837.38C1618.58 1838.33 1619.35 1839.09 1620.29 1839.09L1621.99 1839.09C1625.77 1839.09 1628.83 1836.03 1628.83 1832.26 1628.83 1828.48 1625.77 1825.42 1621.99 1825.42L1620.29 1825.42ZM1622 1835.67 1622 1828.84C1623.89 1828.84 1625.42 1830.37 1625.42 1832.26 1625.42 1834.14 1623.89 1835.67 1622 1835.67Z" fill="#212121"/><path d="M1649.33 1849.33 1649.33 1845.36C1651.35 1844.4 1652.75 1842.34 1652.75 1839.95L1652.75 1824.56C1652.75 1822.18 1651.35 1820.12 1649.33 1819.16L1649.33 1814.58C1649.33 1812.77 1648.61 1811.03 1647.33 1809.75L1627.42 1789.84C1627.36 1789.79 1627.31 1789.74 1627.25 1789.7 1627.21 1789.67 1627.16 1789.63 1627.12 1789.6 1626.89 1789.37 1626.64 1789.17 1626.38 1788.98 1626.29 1788.92 1626.2 1788.87 1626.1 1788.83L1625.94 1788.75 1625.77 1788.65C1625.58 1788.54 1625.4 1788.43 1625.2 1788.35 1624.52 1788.08 1623.8 1787.92 1623.07 1787.88 1623 1787.88 1622.93 1787.87 1622.87 1787.86 1622.78 1787.84 1622.68 1787.83 1622.59 1787.83L1601.5 1787.83C1597.73 1787.83 1594.67 1790.89 1594.67 1794.67L1594.67 1819.16C1592.65 1820.12 1591.25 1822.18 1591.25 1824.56L1591.25 1839.95C1591.25 1842.34 1592.65 1844.39 1594.67 1845.36L1594.67 1849.33C1594.67 1853.11 1597.73 1856.17 1601.5 1856.17L1642.5 1856.17C1646.27 1856.17 1649.33 1853.11 1649.33 1849.33ZM1642.5 1851.04 1601.5 1851.04C1600.56 1851.04 1599.79 1850.28 1599.79 1849.33L1599.79 1845.93 1644.21 1845.93 1644.21 1849.33C1644.21 1850.28 1643.44 1851.04 1642.5 1851.04ZM1644.21 1815.17 1644.21 1818.58 1599.79 1818.58 1599.79 1794.67C1599.79 1793.72 1600.56 1792.96 1601.5 1792.96L1622 1792.96 1622 1808.33C1622 1812.11 1625.06 1815.17 1628.83 1815.17L1644.21 1815.17ZM1640.37 1810.04 1628.83 1810.04C1627.89 1810.04 1627.12 1809.28 1627.12 1808.33L1627.12 1796.79 1640.37 1810.04ZM1597.23 1823.71 1646.77 1823.71C1647.24 1823.71 1647.62 1824.09 1647.62 1824.56L1647.62 1839.95C1647.62 1840.42 1647.24 1840.81 1646.77 1840.81L1597.23 1840.81C1596.76 1840.81 1596.37 1840.42 1596.37 1839.95L1596.37 1824.56C1596.37 1824.09 1596.76 1823.71 1597.23 1823.71Z" fill="#212121"/><rect x="1596" y="1824" width="50.9999" height="15.0001" fill="#FFFFFF"/><text font-family="ADLaM Display,ADLaM Display_MSFontService,sans-serif" font-weight="700" font-size="18" transform="matrix(1 0 0 1 1598.11 1839)">.conf</text></g></svg>