<svg width="220" height="220" xmlns="http://www.w3.org/2000/svg" xmlns:xlink="http://www.w3.org/1999/xlink" xml:space="preserve" overflow="hidden"><defs><clipPath id="clip0"><rect x="1195" y="697" width="220" height="220"/></clipPath></defs><g clip-path="url(#clip0)" transform="translate(-1195 -697)"><path d="M1297.64 794.069 1317.2 774.654 1336.75 794.069 1317.2 813.484C1313.18 817.538 1313.24 824.057 1317.32 828.044 1321.36 831.986 1327.83 831.985 1331.87 828.043L1351.42 808.628 1363.64 820.763 1388.09 796.495C1405.49 779.224 1408.27 752.19 1394.74 731.784L1415 712.224 1400.6 697 1380.1 717.214C1359.54 703.669 1332.21 706.385 1314.76 723.708L1290.31 747.959 1302.53 760.095 1282.98 779.506C1278.96 783.559 1279.01 790.079 1283.1 794.067 1287.13 798.01 1293.61 798.01 1297.64 794.069Z" fill-rule="evenodd"/><path d="M1195 902.764 1210.35 917 1233.89 891.602C1254.32 905.142 1281.4 902.357 1298.7 884.933L1323 860.449 1250.08 787 1225.78 811.484C1208.43 828.962 1205.71 856.333 1219.28 876.927L1195 902.764Z" fill-rule="evenodd"/></g></svg>