<svg width="236" height="235" xmlns="http://www.w3.org/2000/svg" xmlns:xlink="http://www.w3.org/1999/xlink" xml:space="preserve" overflow="hidden"><g transform="translate(-1733 -714)"><path d="M1741 926.873 1756.35 941 1779.89 915.797C1800.33 929.233 1827.4 926.469 1844.7 909.179L1869 884.883 1796.08 812 1771.78 836.295C1754.43 853.639 1751.71 880.8 1765.28 901.235L1741 926.873Z" stroke="#000000" stroke-width="10.3125" stroke-miterlimit="8" fill="none" fill-rule="evenodd"/><path d="M1961 734.494 1946.36 721 1924.93 740.798C1904.53 727.31 1877.52 730.084 1860.25 747.442L1836 771.832 1908.77 845 1933.02 820.61C1950.33 803.198 1953.05 775.932 1939.51 755.417L1961 734.494Z" stroke="#000000" stroke-width="10.3125" stroke-miterlimit="8" fill="none" fill-rule="evenodd"/><path d="M1887.71 828 1867 849.841" stroke="#000000" stroke-width="13.75" stroke-linecap="round" stroke-linejoin="round" stroke-miterlimit="10" fill="none" fill-rule="evenodd"/><path d="M1852.71 793 1832 814.841" stroke="#000000" stroke-width="13.75" stroke-linecap="round" stroke-linejoin="round" stroke-miterlimit="10" fill="none" fill-rule="evenodd"/></g></svg>