<svg width="25" height="25" xmlns="http://www.w3.org/2000/svg" xmlns:xlink="http://www.w3.org/1999/xlink" xml:space="preserve" overflow="hidden"><defs><clipPath id="clip0"><rect x="627" y="347" width="25" height="25"/></clipPath></defs><g clip-path="url(#clip0)" transform="translate(-627 -347)"><path d="M629.321 347 649.502 347C650.882 347 652.002 348.119 652.002 349.5L652.002 369.859C652.002 371.042 651.042 372.002 649.859 372.002L628.964 372.002C627.879 372.002 627 371.122 627 370.037L627 349.321C627 348.039 628.039 347 629.321 347Z" fill="#FFFFFF"/><path d="M302.697 336.681C303.072 336.681 303.39 336.957 303.44 337.329 303.443 337.362 303.446 337.397 303.446 337.431L303.446 339.756C304.919 340.057 306.071 341.208 306.371 342.681L308.696 342.681C309.111 342.681 309.447 343.017 309.447 343.431 309.447 343.806 309.17 344.123 308.799 344.174L308.696 344.18 306.447 344.18 306.447 345.93 308.696 345.93C309.072 345.93 309.389 346.207 309.44 346.578 309.442 346.612 309.446 346.646 309.446 346.68 309.446 347.055 309.169 347.372 308.798 347.423L308.695 347.429 306.445 347.429 306.445 349.179 308.695 349.179C309.07 349.179 309.388 349.456 309.438 349.827 309.441 349.861 309.444 349.895 309.444 349.929 309.444 350.304 309.168 350.621 308.796 350.672L308.694 350.678 306.369 350.678C306.068 352.151 304.917 353.303 303.444 353.604L303.444 355.929C303.444 356.343 303.108 356.679 302.693 356.679 302.319 356.679 302.002 356.402 301.951 356.031 301.949 355.997 301.945 355.963 301.945 355.929L301.945 353.678 300.194 353.678C300.194 354.428 300.194 355.179 300.195 355.929 300.195 356.303 299.918 356.621 299.547 356.672L299.445 356.678C299.069 356.678 298.753 356.401 298.701 356.03 298.699 355.995 298.695 355.962 298.695 355.927L298.694 353.677 296.946 353.677 296.946 355.927C296.946 356.302 296.669 356.62 296.298 356.67L296.196 356.676C295.821 356.676 295.503 356.4 295.453 356.028 295.45 355.994 295.447 355.96 295.447 355.926L295.447 353.601C293.974 353.3 292.822 352.149 292.522 350.676L290.197 350.676C289.782 350.676 289.446 350.34 289.446 349.926 289.446 349.551 289.723 349.234 290.094 349.183L290.197 349.177 292.447 349.176 292.447 347.426 290.197 347.427C289.822 347.427 289.504 347.151 289.454 346.779 289.451 346.746 289.448 346.711 289.448 346.677 289.448 346.302 289.724 345.985 290.096 345.934L290.198 345.928 292.448 345.927 292.448 344.177 290.198 344.179C289.823 344.179 289.505 343.902 289.455 343.53 289.452 343.496 289.449 343.462 289.449 343.428 289.449 343.054 289.725 342.736 290.097 342.685L290.199 342.679 292.524 342.677C292.826 341.205 293.976 340.055 295.449 339.754L295.449 337.429C295.449 337.014 295.785 336.678 296.2 336.678 296.574 336.678 296.891 336.955 296.942 337.326 296.945 337.36 296.948 337.394 296.948 337.429L296.948 339.678 298.697 339.678C298.698 338.928 298.698 338.178 298.698 337.429 298.698 337.054 298.975 336.736 299.346 336.686L299.448 336.68C299.824 336.68 300.141 336.956 300.192 337.328 300.194 337.361 300.198 337.396 300.198 337.43 300.197 338.179 300.197 338.929 300.196 339.679L301.948 339.679 301.948 337.43C301.948 337.092 302.172 336.796 302.497 336.707L302.595 336.686ZM302.697 341.181 296.198 341.181C294.954 341.181 293.947 342.188 293.947 343.431L293.947 349.931C293.947 351.174 294.954 352.181 296.198 352.181L302.697 352.181C303.94 352.181 304.948 351.174 304.948 349.931L304.948 343.431C304.948 342.188 303.94 341.181 302.697 341.181Z" fill="#212121" fill-rule="evenodd" transform="matrix(1 0 0 1.00004 340.054 12.8081)"/><path d="M289.447 345.894 309.446 345.894 309.446 348.934 289.447 348.934Z" fill="#FFFFFF" transform="matrix(1 0 0 1.00004 340.054 12.8081)"/><path d="M297.142 342.607C296.988 342.218 296.551 342.03 296.167 342.186 295.987 342.259 295.842 342.4 295.762 342.578L293.94 346.679 290.196 346.679C289.782 346.679 289.446 347.018 289.446 347.436 289.446 347.855 289.782 348.194 290.196 348.194L294.426 348.194C294.721 348.194 294.989 348.019 295.11 347.747L296.406 344.829 298.751 350.749C298.904 351.138 299.34 351.327 299.725 351.172 299.879 351.11 300.008 350.998 300.092 350.854L302.75 346.308 303.833 347.871C303.972 348.073 304.203 348.194 304.447 348.194L308.697 348.194C309.111 348.194 309.447 347.855 309.447 347.436 309.447 347.018 309.111 346.679 308.697 346.679L304.837 346.679 303.311 344.475C303.073 344.132 302.606 344.049 302.266 344.289 302.179 344.351 302.105 344.431 302.051 344.524L299.576 348.757 297.142 342.606Z" fill="#212121" fill-rule="evenodd" transform="matrix(1 0 0 1.00004 340.054 12.8081)"/></g></svg>