<svg width="96" height="96" xmlns="http://www.w3.org/2000/svg" xmlns:xlink="http://www.w3.org/1999/xlink" xml:space="preserve" overflow="hidden"><defs><clipPath id="clip0"><rect x="791" y="23" width="96" height="96"/></clipPath></defs><g clip-path="url(#clip0)" transform="translate(-791 -23)"><path d="M804.576 23C797.138 23 791 29.1415 791 36.5784L791 105.707C791 113.144 797.138 119.285 804.576 119.285L822.128 119.285C829.565 119.285 835.703 113.144 835.703 105.707L835.703 36.5784C835.703 29.1415 829.565 23 822.128 23ZM804.576 33.3153 822.128 33.3153C823.989 33.3153 825.388 34.7147 825.388 36.5784L825.388 105.707C825.388 107.571 823.989 108.97 822.128 108.97L804.576 108.97C802.714 108.97 801.315 107.571 801.315 105.707L801.315 36.5784C801.315 34.7147 802.714 33.3153 804.576 33.3153Z" fill-rule="evenodd"/><path d="M856.158 23C848.72 23 842.582 29.1415 842.582 36.5784L842.582 105.707C842.582 113.144 848.72 119.285 856.158 119.285L873.71 119.285C881.148 119.285 887.285 113.144 887.285 105.707L887.285 36.5784C887.285 29.1415 881.148 23 873.71 23ZM856.158 33.3153 873.71 33.3153C875.571 33.3153 876.97 34.7147 876.97 36.5784L876.97 105.707C876.97 107.571 875.571 108.97 873.71 108.97L856.158 108.97C854.296 108.97 852.897 107.571 852.897 105.707L852.897 36.5784C852.897 34.7147 854.296 33.3153 856.158 33.3153Z" fill-rule="evenodd"/></g></svg>