<svg width="84" height="81" xmlns="http://www.w3.org/2000/svg" xmlns:xlink="http://www.w3.org/1999/xlink" xml:space="preserve" overflow="hidden"><defs><clipPath id="clip0"><rect x="655" y="31" width="84" height="81"/></clipPath></defs><g clip-path="url(#clip0)" transform="translate(-655 -31)"><path d="M264.138 102.581C262.839 102.753 261.577 103.103 260.402 103.619 255.705 105.68 252.018 110.566 252.018 116.457L252.018 169.336C252.018 175.226 255.705 180.113 260.402 182.174 265.099 184.235 271.193 183.643 275.529 179.655L296.801 160.085C306.798 150.889 306.798 134.903 296.801 125.707L275.529 106.138C272.277 103.147 268.036 102.065 264.138 102.581ZM266.435 113.4C266.973 113.466 267.516 113.719 268.078 114.236L289.352 133.806C294.733 138.756 294.733 147.037 289.352 151.987L268.078 171.556C266.954 172.591 265.905 172.572 264.825 172.098 263.744 171.624 263.02 170.863 263.02 169.336L263.02 116.457C263.02 114.929 263.744 114.169 264.825 113.694 265.365 113.457 265.897 113.335 266.435 113.4Z" fill-rule="evenodd" transform="matrix(1.00849 0 0 1 400.842 -71.4576)"/><path d="M473.767 251.645 473.767 321.598C473.767 324.6 476.2 327.033 479.201 327.033L479.338 327.033C482.339 327.033 484.772 324.6 484.772 321.598L484.772 251.645C484.772 248.643 482.339 246.21 479.338 246.21L479.201 246.21C476.2 246.21 473.767 248.643 473.767 251.645Z" transform="matrix(1.00849 0 0 1 231.809 -215.21)"/><path d="M491.592 251.645 491.592 321.598C491.592 324.6 494.025 327.033 497.026 327.033L497.163 327.033C500.164 327.033 502.598 324.6 502.598 321.598L502.598 251.645C502.598 248.643 500.164 246.21 497.163 246.21L497.026 246.21C494.025 246.21 491.592 248.643 491.592 251.645Z" transform="matrix(1.00849 0 0 1 231.809 -215.21)"/></g></svg>