<svg width="84" height="81" xmlns="http://www.w3.org/2000/svg" xmlns:xlink="http://www.w3.org/1999/xlink" xml:space="preserve" overflow="hidden"><defs><clipPath id="clip0"><rect x="508" y="31" width="84" height="81"/></clipPath></defs><g clip-path="url(#clip0)" transform="translate(-508 -31)"><path d="M248.421 91.2143C239.574 91.2143 232.294 98.4955 232.294 107.343L232.294 156.083C232.294 158.586 232.875 161.057 233.996 163.297 237.953 171.209 247.721 174.465 255.634 170.508L308.153 144.249C308.154 144.249 308.154 144.249 308.155 144.249 310.866 142.893 313.065 140.693 314.421 137.982 317.856 131.112 315.023 122.612 308.153 119.176L255.635 92.9174 255.634 92.9174C253.394 91.7972 250.924 91.2143 248.421 91.2143ZM248.421 101.357C249.351 101.357 250.268 101.574 251.097 101.989 251.097 101.989 251.098 101.989 251.098 101.989L303.618 128.248C305.585 129.231 306.334 131.478 305.35 133.446 304.974 134.196 304.366 134.803 303.616 135.178L251.098 161.437C248.088 162.942 244.574 161.771 243.069 158.76 243.068 158.76 243.068 158.759 243.067 158.759 242.652 157.929 242.436 157.013 242.436 156.083L242.436 107.343C242.436 103.977 245.055 101.357 248.421 101.357Z" transform="matrix(1.00218 0 0 1 275.2 -60.2143)"/></g></svg>