<svg width="110" height="110" xmlns="http://www.w3.org/2000/svg" xmlns:xlink="http://www.w3.org/1999/xlink" xml:space="preserve" overflow="hidden"><g transform="translate(-1537 -1505)"><path d="M1604.43 1515.49 1604.03 1515.13C1602.21 1513.69 1599.59 1513.85 1597.95 1515.49L1597.59 1515.89C1596.15 1517.71 1596.31 1520.33 1597.95 1521.97L1603.9 1527.91 1578.25 1527.91 1577.15 1527.93C1559.87 1528.52 1546.17 1542.69 1546.17 1559.97 1546.17 1566.59 1548.17 1572.75 1551.62 1577.84 1553.09 1579.9 1555.95 1580.37 1558.01 1578.9 1560.07 1577.43 1560.54 1574.57 1559.07 1572.51L1558.45 1571.51C1552.08 1560.58 1555.78 1546.56 1566.71 1540.19 1570.21 1538.15 1574.19 1537.07 1578.25 1537.07L1603.89 1537.07 1597.95 1543.02 1597.59 1543.42C1596 1545.38 1596.29 1548.26 1598.26 1549.86 1600.1 1551.36 1602.78 1551.2 1604.43 1549.49L1618.21 1535.73 1618.56 1535.33C1620 1533.51 1619.85 1530.9 1618.2 1529.25L1604.43 1515.49ZM1632.27 1541.94C1630.72 1539.95 1627.84 1539.59 1625.85 1541.14 1624.73 1542.01 1624.08 1543.35 1624.08 1544.77 1624.08 1545.73 1624.38 1546.61 1624.87 1547.34 1631.84 1557.9 1628.93 1572.1 1618.38 1579.07 1614.63 1581.54 1610.24 1582.86 1605.76 1582.86L1580.15 1582.86 1586.08 1576.95 1586.46 1576.51C1587.74 1574.85 1587.73 1572.52 1586.43 1570.87L1586.08 1570.47 1585.64 1570.08C1583.98 1568.8 1581.65 1568.81 1580 1570.11L1579.59 1570.47 1565.82 1584.23 1565.44 1584.67C1564.15 1586.33 1564.16 1588.66 1565.47 1590.31L1565.82 1590.71 1579.59 1604.47 1580.03 1604.86C1582.03 1606.4 1584.91 1606.03 1586.46 1604.03 1587.74 1602.37 1587.73 1600.05 1586.43 1598.39L1586.08 1598 1580.1 1592.02 1605.75 1592.02 1606.85 1592.01C1624.55 1591.4 1638.41 1576.56 1637.8 1558.86 1637.59 1552.81 1635.67 1546.94 1632.27 1541.93L1632.27 1541.94Z" fill="#212121"/><path d="M1585 1582C1585 1567.64 1596.64 1556 1611 1556 1625.36 1556 1637 1567.64 1637 1582 1637 1596.36 1625.36 1608 1611 1608 1596.64 1608 1585 1596.36 1585 1582Z" fill="#FFFFFF" fill-rule="evenodd"/><g><g><g><path d="M1200 1292.98C1200 1295.85 1199.44 1298.55 1198.33 1301.08 1197.25 1303.62 1195.76 1305.82 1193.88 1307.71 1192 1309.59 1189.79 1311.08 1187.26 1312.19 1184.73 1313.28 1182.02 1313.82 1179.15 1313.82 1176.26 1313.82 1173.54 1313.28 1171.01 1312.19 1168.48 1311.11 1166.27 1309.62 1164.39 1307.74 1162.51 1305.86 1161.02 1303.65 1159.94 1301.12 1158.85 1298.59 1158.31 1295.87 1158.31 1292.98 1158.31 1290.1 1158.85 1287.4 1159.94 1284.87 1161.05 1282.34 1162.54 1280.13 1164.42 1278.25 1166.3 1276.36 1168.51 1274.88 1171.05 1273.8 1173.58 1272.69 1176.28 1272.13 1179.15 1272.13 1181.06 1272.13 1182.89 1272.38 1184.65 1272.89 1186.44 1273.37 1188.1 1274.07 1189.65 1274.99 1191.19 1275.88 1192.6 1276.97 1193.88 1278.25 1195.16 1279.53 1196.25 1280.94 1197.14 1282.48 1198.06 1284.03 1198.76 1285.69 1199.24 1287.48 1199.75 1289.24 1200 1291.07 1200 1292.98ZM1181.47 1283.71C1181.47 1283.08 1181.24 1282.54 1180.78 1282.08 1180.32 1281.62 1179.78 1281.4 1179.15 1281.4 1178.53 1281.4 1177.98 1281.62 1177.52 1282.08L1172.89 1286.72C1172.43 1287.17 1172.2 1287.72 1172.2 1288.34 1172.2 1288.97 1172.43 1289.51 1172.89 1289.97 1173.35 1290.43 1173.89 1290.66 1174.52 1290.66 1175.05 1290.66 1175.49 1290.53 1175.82 1290.26 1176.16 1289.97 1176.5 1289.66 1176.84 1289.32L1176.84 1302.24C1176.84 1302.87 1177.07 1303.41 1177.52 1303.87 1177.98 1304.33 1178.53 1304.56 1179.15 1304.56 1179.78 1304.56 1180.32 1304.33 1180.78 1303.87 1181.24 1303.41 1181.47 1302.87 1181.47 1302.24Z" transform="matrix(1.00001 0 0 1 431.683 288.87)"/></g></g></g></g></svg>